<svg width="236" height="48" viewBox="0 0 236 48" fill="none" xmlns="http://www.w3.org/2000/svg">
<mask id="mask0_67_212" style="mask-type:luminance" maskUnits="userSpaceOnUse" x="1" y="0" width="12" height="29">
<path d="M1 0.697876H13V28.6666H1V0.697876Z" fill="white"/>
</mask>
<g mask="url(#mask0_67_212)">
<path d="M3.87504 27.4166L12.6875 21.5155V1.38013L3.87504 6.87492L2.13025 13.8385L3.87504 27.4166Z" fill="#22475B"/>
</g>
<mask id="mask1_67_212" style="mask-type:luminance" maskUnits="userSpaceOnUse" x="0" y="0" width="9" height="24">
<path d="M0.067749 0.697876H9.00004V23.3333H0.067749V0.697876Z" fill="white"/>
</mask>
<g mask="url(#mask1_67_212)">
<path d="M2.13025 23.1563L8.87504 20.8385V0.703125L0.067749 6.20313L2.13025 23.1563Z" fill="#22475B"/>
</g>
<path d="M11.9427 12.25V12.099L12.0365 2.17188C10.75 2.33333 9.54167 2.54167 8.66146 2.03125L8.20312 13.7031C9.44792 13.2083 10.6823 12.7031 11.9427 12.25Z" fill="#DBDBDB"/>
<path d="M1.875 26.474L10.6406 20.8229L10.9896 7.90104L8.66146 2.03125L1.0625 6.86458L1.875 26.474Z" fill="#DBDBDB"/>
<mask id="mask2_67_212" style="mask-type:luminance" maskUnits="userSpaceOnUse" x="0" y="6" width="5" height="23">
<path d="M0.067749 6H5.00004V28.6667H0.067749V6Z" fill="white"/>
</mask>
<g mask="url(#mask2_67_212)">
<path d="M0.067749 26.474C0.692749 26.9844 2.53129 27.4896 3.87504 27.4167V6.875C2.43754 6.83854 1.17192 6.60937 0.067749 6.20312V26.474Z" fill="#325A75"/>
</g>
<mask id="mask3_67_212" style="mask-type:luminance" maskUnits="userSpaceOnUse" x="3" y="0" width="10" height="25">
<path d="M3.66663 0.697876H13V24.6666H3.66663V0.697876Z" fill="white"/>
</mask>
<g mask="url(#mask3_67_212)">
<path d="M5.9375 24.1041L12.6875 21.7864V1.38013L3.875 6.87492L5.9375 24.1041Z" fill="#B53333"/>
</g>
<path d="M5.68225 27.4271L14.4531 21.776L14.7968 8.57292L12.4687 2.70312L4.86975 7.54167L5.68225 27.4271Z" fill="#DBDBDB"/>
<path d="M15.75 13.2032V13.0521L15.8437 2.849C14.5573 3.01046 13.3489 3.21879 12.4739 2.70837L12.0104 14.6563C13.2552 14.1563 14.4895 13.6511 15.75 13.2032Z" fill="#DBDBDB"/>
<path d="M7.68229 28.3698L16.4948 22.4635V2.05725L7.68229 7.55204L5.9375 14.7864L7.68229 28.3698Z" fill="#B53333"/>
<path d="M3.875 27.4271C4.50521 27.9323 6.33854 28.4375 7.68229 28.3698V7.55208C6.25 7.51563 4.97917 7.28646 3.875 6.875V27.4271Z" fill="#CC4444"/>
<path d="M11.1666 24.5052L16.4948 22.6718V5.22913L9.54163 9.56767L11.1666 24.5052Z" fill="#22475B"/>
<path d="M10.9687 27.125L17.8854 22.6666L18.1614 10.9062L16.3229 6.276L10.3229 10.0885L10.9687 27.125Z" fill="#DBDBDB"/>
<path d="M18.9115 15.901V15.7812L18.9844 6.38538C17.9688 6.51559 17.0157 6.67704 16.323 6.276L15.9584 17.0416C16.9427 16.651 17.9167 16.2552 18.9115 15.901Z" fill="#DBDBDB"/>
<path d="M12.8073 27.9166L19.7604 23.2552V5.80725L12.8073 10.1458L11.4323 17.1979L12.8073 27.9166Z" fill="#22475B"/>
<path d="M9.54163 27.125C10.0364 27.5261 11.75 27.9688 12.8073 27.9167V10.1459C11.677 10.1146 10.4114 9.89067 9.54163 9.56775V27.125Z" fill="#325A75"/>
<path d="M15.198 25.0052L19.7605 23.4375V8.95312L13.8021 12.6719L15.198 25.0052Z" fill="#E08517"/>
<path d="M15.0261 27.25L20.9532 23.427L21.1927 13.8229L19.6146 9.85413L14.474 13.1198L15.0261 27.25Z" fill="#DBDBDB"/>
<path d="M21.8333 17.4948V17.3906L21.901 9.94788C21.026 10.0573 20.2135 10.1979 19.6198 9.85413L19.3073 19.5052C20.1458 19.1718 20.9843 17.7968 21.8333 17.4948Z" fill="#DBDBDB"/>
<path d="M16.6042 27.9271L22.5625 23.9323V9.45312L16.6042 13.1667L15.4219 19.6354L16.6042 27.9271Z" fill="#E08517"/>
<path d="M13.8021 27.25C14.2292 27.5937 15.698 27.974 16.6042 27.9271V13.1667C15.6355 13.1406 14.5469 12.9531 13.8021 12.6719V27.25Z" fill="#FF9F1C"/>
<path d="M18 25.5L22.5625 23.9323V9.45312L16.6041 13.1667L18 25.5Z" fill="#B53333"/>
<path d="M17.8281 27.7448L23.7552 23.9219L23.9895 14.3177L22.4166 10.349L17.276 13.6198L17.8281 27.7448Z" fill="#DBDBDB"/>
<path d="M24.6354 17.9896V17.8907L24.6979 10.448C23.8281 10.5521 23.0104 10.6927 22.4166 10.349L22.1041 20.0052C22.9479 19.6667 23.7812 18.2969 24.6354 17.9896Z" fill="#DBDBDB"/>
<path d="M19.4063 28.4218L25.3646 24.427V9.94788L19.4063 13.6666L18.224 20.1354L19.4063 28.4218Z" fill="#B53333"/>
<path d="M16.6041 27.7448C17.0312 28.0885 18.4948 28.4688 19.4062 28.4219V13.6667C18.4323 13.6406 17.3489 13.4479 16.6041 13.1719V27.7448Z" fill="#CC4444"/>
<path d="M23.4063 30.1614L29.3646 26.1718L25.3646 11.4166L19.4062 15.1354L23.4063 30.1614Z" fill="#E08517"/>
<path d="M20.1459 15.3906L25.099 12.3281C25.099 12.3281 26.4219 12.2916 27.5052 11.8541L27.125 24.5052L20.1459 15.3906Z" fill="#DBDBDB"/>
<path d="M26.151 29.9583L32.1093 25.9635L28.1093 11.2135L22.151 14.927L26.151 29.9583Z" fill="#E08517"/>
<path d="M22.151 14.9271C22.151 14.9271 20.7187 15.2448 19.4062 15.1355L23.4063 30.1615C23.4063 30.1615 24.901 30.5052 26.151 29.9584L22.151 14.9271Z" fill="#FF9F1C"/>
<path d="M28.2136 28.5834L32.7761 27.0157V12.5365L26.8177 16.2552L28.2136 28.5834Z" fill="#22475B"/>
<path d="M28.0417 30.8281L33.9688 27.0104L34.2032 17.401L32.6302 13.4323L27.4896 16.7031L28.0417 30.8281Z" fill="#DBDBDB"/>
<mask id="mask4_67_212" style="mask-type:luminance" maskUnits="userSpaceOnUse" x="31" y="12" width="5" height="12">
<path d="M31.6666 12.6666H35.5781V23.3333H31.6666V12.6666Z" fill="white"/>
</mask>
<g mask="url(#mask4_67_212)">
<path d="M34.8489 21.0728V20.9687L34.9166 13.526C34.0416 13.6353 33.2239 13.776 32.6301 13.427L32.3176 23.0833C33.1614 22.7551 33.9947 21.3801 34.8489 21.0728Z" fill="#DBDBDB"/>
</g>
<mask id="mask5_67_212" style="mask-type:luminance" maskUnits="userSpaceOnUse" x="27" y="12" width="9" height="20">
<path d="M27.6666 12.6666H35.5781V31.5625H27.6666V12.6666Z" fill="white"/>
</mask>
<g mask="url(#mask5_67_212)">
<path d="M29.6198 31.5052L35.5781 27.5156V13.0312L29.6198 16.75L28.4375 23.2188L29.6198 31.5052Z" fill="#22475B"/>
</g>
<mask id="mask6_67_212" style="mask-type:luminance" maskUnits="userSpaceOnUse" x="26" y="15" width="5" height="17">
<path d="M26.3334 15.3334H30.3334V31.5625H26.3334V15.3334Z" fill="white"/>
</mask>
<g mask="url(#mask6_67_212)">
<path d="M26.8177 30.8334C27.2448 31.1771 28.7136 31.5573 29.6198 31.5105V16.75C28.6511 16.724 27.5625 16.5313 26.8177 16.2552V30.8334Z" fill="#325A75"/>
</g>
<path d="M56.5094 5.76383L66.4469 26.2847C66.8636 27.118 67.0719 27.743 67.0719 28.1597C67.0719 29.0347 66.3532 29.8368 64.9261 30.5555C64.0928 30.9722 63.4365 31.1805 62.9678 31.1805C62.4938 31.1805 62.098 31.0659 61.7803 30.8472C61.473 30.6284 61.249 30.3993 61.1136 30.1597C60.9886 29.9097 60.8011 29.5347 60.5511 29.0347L58.6553 25.0763H48.4678L46.5511 29.0347C46.3011 29.5347 46.1032 29.8993 45.9678 30.118C45.8428 30.3263 45.624 30.5503 45.3219 30.7847C45.0146 31.019 44.6188 31.1388 44.1344 31.1388C43.6605 31.1388 43.0094 30.9305 42.1761 30.5138C40.7438 29.8211 40.0303 29.0347 40.0303 28.1597C40.0303 27.743 40.2386 27.118 40.6553 26.2847L50.5928 5.72217C50.8532 5.17009 51.2646 4.71696 51.8219 4.368C52.374 4.02425 52.9574 3.84717 53.5719 3.84717C54.8896 3.84717 55.8688 4.48779 56.5094 5.76383ZM53.5303 14.5972L51.1136 19.618H55.9886L53.5303 14.5972Z" fill="#004AAD"/>
<path d="M89.5203 9.3055C90.1557 10.5972 90.4786 12.0451 90.4786 13.6388C90.4786 15.2222 90.1557 16.6597 89.5203 17.9513C88.8953 19.243 88.0723 20.2743 87.0619 21.0347C85.0307 22.592 82.9265 23.368 80.7494 23.368H76.1453V27.5347C76.1453 28.1076 76.1244 28.5295 76.0828 28.8055C76.0515 29.0868 75.9421 29.4097 75.7494 29.7847C75.4005 30.4409 74.4421 30.7638 72.8744 30.7638C71.1505 30.7638 70.1453 30.3159 69.8536 29.4097C69.713 28.993 69.6453 28.3576 69.6453 27.493V7.09717C69.6453 6.52946 69.6557 6.10758 69.6869 5.82633C69.7286 5.53467 69.8432 5.21175 70.0411 4.84717C70.3848 4.1805 71.3432 3.84717 72.9161 3.84717H80.7703C82.9369 3.84717 85.0307 4.63363 87.0619 6.20133C88.0723 6.96696 88.8953 8.00342 89.5203 9.3055ZM80.7703 16.868C81.5046 16.868 82.2286 16.5972 82.9369 16.0555C83.6557 15.5138 84.0203 14.7118 84.0203 13.6388C84.0203 12.5555 83.6557 11.743 82.9369 11.2013C82.2286 10.6493 81.4994 10.368 80.7494 10.368H76.1453V16.868H80.7703Z" fill="#004AAD"/>
<path d="M113.308 9.3055C113.943 10.5972 114.266 12.0451 114.266 13.6388C114.266 15.2222 113.943 16.6597 113.308 17.9513C112.683 19.243 111.86 20.2743 110.85 21.0347C108.818 22.592 106.714 23.368 104.537 23.368H99.933V27.5347C99.933 28.1076 99.9122 28.5295 99.8705 28.8055C99.8392 29.0868 99.7299 29.4097 99.5372 29.7847C99.1882 30.4409 98.2299 30.7638 96.6622 30.7638C94.9382 30.7638 93.933 30.3159 93.6413 29.4097C93.5007 28.993 93.433 28.3576 93.433 27.493V7.09717C93.433 6.52946 93.4434 6.10758 93.4747 5.82633C93.5163 5.53467 93.6309 5.21175 93.8288 4.84717C94.1726 4.1805 95.1309 3.84717 96.7038 3.84717H104.558C106.725 3.84717 108.818 4.63363 110.85 6.20133C111.86 6.96696 112.683 8.00342 113.308 9.3055ZM104.558 16.868C105.292 16.868 106.016 16.5972 106.725 16.0555C107.443 15.5138 107.808 14.7118 107.808 13.6388C107.808 12.5555 107.443 11.743 106.725 11.2013C106.016 10.6493 105.287 10.368 104.537 10.368H99.933V16.868H104.558Z" fill="#004AAD"/>
<path d="M123.733 24.3055H135.067C135.619 24.3055 136.035 24.3263 136.317 24.368C136.608 24.3993 136.931 24.5086 137.296 24.7013C137.963 25.0503 138.296 26.0086 138.296 27.5763C138.296 29.2847 137.843 30.2847 136.942 30.5763C136.525 30.7326 135.884 30.8055 135.025 30.8055H120.463C118.739 30.8055 117.733 30.342 117.442 29.4097C117.301 29.0243 117.233 28.3993 117.233 27.5347V7.09717C117.233 5.84717 117.463 4.993 117.921 4.53467C118.39 4.07633 119.275 3.84717 120.567 3.84717H135.067C135.619 3.84717 136.035 3.868 136.317 3.90967C136.608 3.95133 136.931 4.07113 137.296 4.26383C137.963 4.59717 138.296 5.55029 138.296 7.118C138.296 8.84196 137.843 9.84717 136.942 10.1388C136.525 10.2951 135.884 10.368 135.025 10.368H123.733V14.0763H131.004C131.572 14.0763 131.994 14.0972 132.275 14.1388C132.567 14.1701 132.89 14.2795 133.254 14.4722C133.921 14.8211 134.254 15.7795 134.254 17.3472C134.254 19.0711 133.785 20.0763 132.858 20.368C132.442 20.5086 131.801 20.5763 130.942 20.5763H123.733V24.3055Z" fill="#38B6FF"/>
<path d="M161.867 26.243C162.226 27.1336 162.408 27.7743 162.408 28.1597C162.408 29.092 161.648 29.8784 160.138 30.5138C159.346 30.8576 158.705 31.0347 158.221 31.0347C157.747 31.0347 157.356 30.9149 157.054 30.6805C156.747 30.4461 156.523 30.2013 156.388 29.9513C156.138 29.493 155.179 27.2795 153.513 23.3055L152.367 23.368H147.742V27.5347C147.742 28.1076 147.721 28.5295 147.679 28.8055C147.648 29.0868 147.539 29.4097 147.346 29.7847C146.997 30.4409 146.039 30.7638 144.471 30.7638C142.747 30.7638 141.742 30.3159 141.45 29.4097C141.309 28.993 141.242 28.3576 141.242 27.493V7.09717C141.242 6.52946 141.252 6.10758 141.283 5.82633C141.325 5.53467 141.44 5.21175 141.638 4.84717C141.981 4.1805 142.94 3.84717 144.513 3.84717H152.45C154.601 3.84717 156.7 4.63363 158.742 6.20133C159.71 6.96696 160.518 8.00342 161.158 9.3055C161.794 10.5972 162.117 12.0451 162.117 13.6388C162.117 16.4045 161.2 18.6805 159.367 20.4722C159.908 21.7795 160.742 23.7013 161.867 26.243ZM147.742 16.868H152.45C153.158 16.868 153.867 16.5972 154.575 16.0555C155.283 15.5138 155.638 14.7118 155.638 13.6388C155.638 12.5555 155.283 11.743 154.575 11.2013C153.867 10.6493 153.127 10.368 152.367 10.368H147.742V16.868Z" fill="#38B6FF"/>
<path d="M184.868 9.3055C185.503 10.5972 185.826 12.0451 185.826 13.6388C185.826 15.2222 185.503 16.6597 184.868 17.9513C184.243 19.243 183.42 20.2743 182.409 21.0347C180.378 22.592 178.274 23.368 176.097 23.368H171.493V27.5347C171.493 28.1076 171.472 28.5295 171.43 28.8055C171.399 29.0868 171.289 29.4097 171.097 29.7847C170.748 30.4409 169.789 30.7638 168.222 30.7638C166.498 30.7638 165.493 30.3159 165.201 29.4097C165.06 28.993 164.993 28.3576 164.993 27.493V7.09717C164.993 6.52946 165.003 6.10758 165.034 5.82633C165.076 5.53467 165.19 5.21175 165.388 4.84717C165.732 4.1805 166.69 3.84717 168.263 3.84717H176.118C178.284 3.84717 180.378 4.63363 182.409 6.20133C183.42 6.96696 184.243 8.00342 184.868 9.3055ZM176.118 16.868C176.852 16.868 177.576 16.5972 178.284 16.0555C179.003 15.5138 179.368 14.7118 179.368 13.6388C179.368 12.5555 179.003 11.743 178.284 11.2013C177.576 10.6493 176.847 10.368 176.097 10.368H171.493V16.868H176.118Z" fill="#38B6FF"/>
<path d="M206.384 4.84721C206.634 4.46179 206.989 4.19096 207.447 4.03471C207.916 3.88367 208.499 3.80554 209.197 3.80554C209.89 3.80554 210.447 3.86804 210.864 3.99304C211.28 4.11804 211.598 4.27429 211.822 4.45138C212.041 4.61804 212.202 4.87846 212.301 5.22221C212.452 5.63888 212.53 6.27429 212.53 7.11804V18.2222C212.53 21.4618 211.52 24.4045 209.509 27.0555C208.52 28.3055 207.259 29.3212 205.718 30.0972C204.176 30.8576 202.468 31.243 200.593 31.243C198.718 31.243 197.009 30.8524 195.468 30.0764C193.937 29.2847 192.702 28.2535 191.759 26.9722C189.77 24.3785 188.78 21.441 188.78 18.1597V7.09721C188.78 6.50346 188.791 6.06596 188.822 5.78471C188.864 5.50867 188.978 5.19096 189.176 4.82638C189.369 4.45138 189.697 4.19096 190.155 4.03471C190.624 3.88367 191.249 3.80554 192.03 3.80554C192.822 3.80554 193.447 3.88367 193.905 4.03471C194.374 4.19096 194.702 4.44617 194.884 4.80554C195.176 5.37846 195.322 6.14929 195.322 7.11804V18.1597C195.322 19.6597 195.687 21.0868 196.426 22.4305C196.785 23.1128 197.332 23.6597 198.072 24.0764C198.806 24.493 199.676 24.7014 200.676 24.7014C202.468 24.7014 203.801 24.0451 204.676 22.7222C205.562 21.3889 206.009 19.8576 206.009 18.118V6.86804C206.009 5.90971 206.134 5.23783 206.384 4.84721Z" fill="#38B6FF"/>
<path d="M216.42 27.0138C215.779 26.2378 215.461 25.5347 215.461 24.9097C215.461 24.2847 215.987 23.4618 217.045 22.4305C217.654 21.8368 218.3 21.5347 218.982 21.5347C219.675 21.5347 220.633 22.1493 221.857 23.368C222.201 23.7847 222.696 24.1909 223.336 24.5763C223.972 24.9513 224.565 25.1388 225.107 25.1388C227.383 25.1388 228.524 24.2118 228.524 22.3472C228.524 21.7795 228.211 21.3055 227.586 20.9305C226.961 20.5555 226.18 20.2847 225.253 20.118C224.321 19.9409 223.315 19.6597 222.232 19.2847C221.149 18.8993 220.138 18.4461 219.211 17.9305C218.279 17.4201 217.503 16.6076 216.878 15.493C216.253 14.3836 215.94 13.0451 215.94 11.4722C215.94 9.3055 216.737 7.42529 218.336 5.82633C219.946 4.21696 222.138 3.40967 224.92 3.40967C226.388 3.40967 227.732 3.60758 228.94 3.993C230.149 4.368 230.987 4.75342 231.461 5.13883L232.378 5.84717C233.138 6.5555 233.524 7.15446 233.524 7.63883C233.524 8.12842 233.222 8.80029 232.628 9.65967C231.795 10.8836 230.94 11.493 230.065 11.493C229.55 11.493 228.909 11.2534 228.149 10.7638C228.076 10.7222 227.94 10.6076 227.732 10.4097C227.524 10.2013 227.326 10.0347 227.149 9.90967C226.633 9.60758 225.982 9.45133 225.19 9.45133C224.399 9.45133 223.737 9.63883 223.211 10.0138C222.68 10.3888 222.42 10.9201 222.42 11.5972C222.42 12.2638 222.732 12.8055 223.357 13.2222C223.982 13.6388 224.758 13.9253 225.69 14.0763C226.618 14.2326 227.633 14.4618 228.732 14.7638C229.842 15.0711 230.862 15.4461 231.795 15.8888C232.722 16.3211 233.503 17.0868 234.128 18.1805C234.753 19.2638 235.065 20.6076 235.065 22.2013C235.065 23.8003 234.743 25.2013 234.107 26.4097C233.467 27.618 232.633 28.5555 231.607 29.2222C229.618 30.5295 227.503 31.1805 225.253 31.1805C224.097 31.1805 223.003 31.0399 221.961 30.7638C220.93 30.4722 220.107 30.118 219.482 29.7013C218.175 28.9253 217.263 28.1701 216.753 27.4305L216.42 27.0138Z" fill="#38B6FF"/>
<path d="M4.35327 45.2648C4.13452 45.7284 3.60848 46.0513 3.06161 46.0513C2.20744 46.0513 1.51994 45.3169 1.51994 44.4159C1.51994 43.52 2.20744 42.7804 3.06161 42.7804C3.59806 42.7804 4.12931 43.0773 4.34806 43.5513H5.64494C5.29077 42.4679 4.26994 41.6919 3.06161 41.6919C1.56161 41.6919 0.337646 42.9159 0.337646 44.4159C0.337646 45.9159 1.56161 47.1398 3.06161 47.1398C4.26994 47.1398 5.29598 46.3534 5.65535 45.2648H4.35327Z" fill="black"/>
<path d="M11.9558 44.4054C11.9558 45.2231 11.2162 45.9731 10.3985 45.9731C9.58081 45.9731 8.84123 45.2231 8.84123 44.4054C8.84123 43.5929 9.58081 42.8534 10.3985 42.8534C11.2162 42.8534 11.9558 43.5929 11.9558 44.4054ZM13.1225 44.4159C13.1225 42.9523 11.8621 41.6919 10.3985 41.6919C8.93498 41.6919 7.67456 42.9523 7.67456 44.4159C7.67456 45.8794 8.93498 47.1398 10.3985 47.1398C11.8621 47.1398 13.1225 45.8794 13.1225 44.4159Z" fill="black"/>
<path d="M22.0186 47.0617L20.9925 41.77H19.6071L18.5081 45.4836L17.404 41.77H16.0186L14.9873 47.0617H16.2738L16.8988 43.4106L17.93 47.0617H19.0758L20.1123 43.4106L20.7321 47.0617H22.0186Z" fill="black"/>
<path d="M25.2459 47.0617V41.77H24.0792V47.0617H25.2459Z" fill="black"/>
<path d="M31.8926 47.0617V41.77H30.7207V45.0669L28.903 41.77H27.7363V47.0617H28.903V43.7596L30.7207 47.0617H31.8926Z" fill="black"/>
<path d="M37.0268 42.7804C37.5372 42.7804 38.0685 42.994 38.3237 43.5513H39.6101C39.2456 42.4523 38.1935 41.6919 37.0268 41.6919C35.532 41.6919 34.3029 42.9211 34.3029 44.4159C34.3029 45.9106 35.532 47.1398 37.0268 47.1398C38.5372 47.1398 39.7404 45.9159 39.7404 44.4159V44.2388H37.1362V45.1138H38.4799C38.1935 45.9159 37.5372 46.0825 37.0268 46.0825C36.1831 46.0825 35.4851 45.3273 35.4851 44.4315C35.4851 43.5356 36.1831 42.7804 37.0268 42.7804Z" fill="black"/>
<path d="M46.7052 45.1711H46.7105L47.9709 47.0617H49.45L47.9344 45.1138C48.6011 44.9523 49.1375 44.3638 49.1375 43.4679C49.1375 42.4627 48.3771 41.77 47.523 41.77H45.5386V47.0617H46.7052V45.1711ZM47.325 42.6867C47.6688 42.6867 48.0282 42.9836 48.0282 43.4679C48.0282 43.9731 47.6688 44.2544 47.325 44.2544H46.7052V42.6867H47.325Z" fill="black"/>
<path d="M54.4443 46.0044H52.5485V44.9367H54.3662V43.8794H52.5485V42.8273H54.4443V41.77H51.3818V47.0617H54.4443V46.0044Z" fill="black"/>
<path d="M59.8175 45.0356H58.479L59.1456 43.1554L59.8175 45.0356ZM61.7915 47.0617L59.6456 41.77H58.656L56.505 47.0617H57.7602L58.1404 45.994H60.156L60.5363 47.0617H61.7915Z" fill="black"/>
<path d="M65.0052 45.9888V42.8534H65.3541C66.2552 42.8534 66.8645 43.5356 66.8645 44.4159C66.8645 45.2961 66.25 45.9888 65.3541 45.9888H65.0052ZM63.8541 41.77V47.0617H65.4218C66.927 47.0617 68.0573 45.9106 68.0573 44.4159C68.0573 42.9211 66.9166 41.77 65.4218 41.77H63.8541Z" fill="black"/>
<path d="M76.8369 44.9367V43.8794H75.0192V42.8273H76.915V41.77H73.8525V47.0617H75.0192V44.9367H76.8369Z" fill="black"/>
<path d="M83.4135 44.4054C83.4135 45.2231 82.6739 45.9731 81.8562 45.9731C81.0385 45.9731 80.2989 45.2231 80.2989 44.4054C80.2989 43.5929 81.0385 42.8534 81.8562 42.8534C82.6739 42.8534 83.4135 43.5929 83.4135 44.4054ZM84.5801 44.4159C84.5801 42.9523 83.3197 41.6919 81.8562 41.6919C80.3926 41.6919 79.1322 42.9523 79.1322 44.4159C79.1322 45.8794 80.3926 47.1398 81.8562 47.1398C83.3197 47.1398 84.5801 45.8794 84.5801 44.4159Z" fill="black"/>
<path d="M88.0439 45.1711H88.0491L89.3095 47.0617H90.7887L89.273 45.1138C89.9397 44.9523 90.4762 44.3638 90.4762 43.4679C90.4762 42.4627 89.7157 41.77 88.8616 41.77H86.8772V47.0617H88.0439V45.1711ZM88.6637 42.6867C89.0074 42.6867 89.3668 42.9836 89.3668 43.4679C89.3668 43.9731 89.0074 44.2544 88.6637 44.2544H88.0439V42.6867H88.6637Z" fill="black"/>
<path d="M97.7689 47.0617H98.9356V44.5304L100.889 41.77H99.4981L98.3523 43.5981L97.2064 41.77H95.8158L97.7689 44.5304V47.0617Z" fill="black"/>
<path d="M107.059 44.4054C107.059 45.2231 106.319 45.9731 105.502 45.9731C104.684 45.9731 103.944 45.2231 103.944 44.4054C103.944 43.5929 104.684 42.8534 105.502 42.8534C106.319 42.8534 107.059 43.5929 107.059 44.4054ZM108.226 44.4159C108.226 42.9523 106.965 41.6919 105.502 41.6919C104.038 41.6919 102.778 42.9523 102.778 44.4159C102.778 45.8794 104.038 47.1398 105.502 47.1398C106.965 47.1398 108.226 45.8794 108.226 44.4159Z" fill="black"/>
<path d="M113.611 41.77V44.8273C113.611 45.5617 113.392 45.9731 112.59 45.9731C111.799 45.9731 111.569 45.5617 111.569 44.8273V41.77H110.403V44.9992C110.403 46.4054 111.215 47.1398 112.59 47.1398C113.971 47.1398 114.778 46.4054 114.778 44.9992V41.77H113.611Z" fill="black"/>
<path d="M118.318 45.1711H118.324L119.584 47.0617H121.063L119.548 45.1138C120.214 44.9523 120.751 44.3638 120.751 43.4679C120.751 42.4627 119.99 41.77 119.136 41.77H117.152V47.0617H118.318V45.1711ZM118.938 42.6867C119.282 42.6867 119.641 42.9836 119.641 43.4679C119.641 43.9731 119.282 44.2544 118.938 44.2544H118.318V42.6867H118.938Z" fill="black"/>
<path d="M125.047 46.2388C124.474 46.2388 123.974 45.9471 123.943 45.3169H122.761C122.766 46.6086 123.834 47.1867 125 47.1867C126.084 47.1867 127.198 46.7284 127.198 45.4836C127.198 43.4679 124.136 44.145 124.136 43.2023C124.136 42.8065 124.594 42.6502 124.922 42.6502C125.505 42.6502 125.828 42.8273 125.891 43.3794H127.016C126.979 42.1763 125.995 41.6919 124.906 41.6919C123.943 41.6919 122.932 42.2075 122.932 43.2961C122.932 45.2492 125.99 44.5877 125.99 45.6138C125.99 46.0877 125.412 46.2388 125.047 46.2388Z" fill="black"/>
<path d="M132.515 46.0044H130.62V44.9367H132.437V43.8794H130.62V42.8273H132.515V41.77H129.453V47.0617H132.515V46.0044Z" fill="black"/>
<path d="M135.008 47.0617H138.071V46.0044H136.175V41.77H135.008V47.0617Z" fill="black"/>
<path d="M143.354 44.9367V43.8794H141.536V42.8273H143.432V41.77H140.369V47.0617H141.536V44.9367H143.354Z" fill="black"/>
</svg>
