<svg width="196" height="28" viewBox="0 0 196 28" fill="none" xmlns="http://www.w3.org/2000/svg">
<path d="M16.4792 2.35417L26.4167 22.875C26.8333 23.7083 27.0417 24.3333 27.0417 24.75C27.0417 25.625 26.3229 26.4271 24.8958 27.1458C24.0625 27.5625 23.4063 27.7708 22.9375 27.7708C22.4635 27.7708 22.0677 27.6563 21.75 27.4375C21.4427 27.2188 21.2187 26.9896 21.0833 26.75C20.9583 26.5 20.7708 26.125 20.5208 25.625L18.625 21.6667H8.4375L6.52083 25.625C6.27083 26.125 6.07292 26.4896 5.9375 26.7083C5.8125 26.9167 5.59375 27.1406 5.29167 27.375C4.98437 27.6094 4.58854 27.7292 4.10417 27.7292C3.63021 27.7292 2.97917 27.5208 2.14583 27.1042C0.713541 26.4115 0 25.625 0 24.75C0 24.3333 0.208333 23.7083 0.625 22.875L10.5625 2.3125C10.8229 1.76042 11.2344 1.30729 11.7917 0.958333C12.3437 0.614583 12.9271 0.4375 13.5417 0.4375C14.8594 0.4375 15.8385 1.07813 16.4792 2.35417ZM13.5 11.1875L11.0833 16.2083H15.9583L13.5 11.1875Z" fill="#4570E0"/>
<path d="M49.49 5.89583C50.1254 7.1875 50.4483 8.63542 50.4483 10.2292C50.4483 11.8125 50.1254 13.25 49.49 14.5417C48.865 15.8333 48.0421 16.8646 47.0317 17.625C45.0004 19.1823 42.8962 19.9583 40.7192 19.9583H36.115V24.125C36.115 24.6979 36.0942 25.1198 36.0525 25.3958C36.0212 25.6771 35.9119 26 35.7192 26.375C35.3702 27.0313 34.4119 27.3542 32.8442 27.3542C31.1202 27.3542 30.115 26.9063 29.8233 26C29.6827 25.5833 29.615 24.9479 29.615 24.0833V3.6875C29.615 3.11979 29.6254 2.69792 29.6567 2.41667C29.6983 2.125 29.8129 1.80208 30.0108 1.4375C30.3546 0.770833 31.3129 0.4375 32.8858 0.4375H40.74C42.9067 0.4375 45.0004 1.22396 47.0317 2.79167C48.0421 3.55729 48.865 4.59375 49.49 5.89583ZM40.74 13.4583C41.4744 13.4583 42.1983 13.1875 42.9067 12.6458C43.6254 12.1042 43.99 11.3021 43.99 10.2292C43.99 9.14583 43.6254 8.33333 42.9067 7.79167C42.1983 7.23958 41.4692 6.95833 40.7192 6.95833H36.115V13.4583H40.74Z" fill="#4570E0"/>
<path d="M73.2777 5.89583C73.9131 7.1875 74.236 8.63542 74.236 10.2292C74.236 11.8125 73.9131 13.25 73.2777 14.5417C72.6527 15.8333 71.8298 16.8646 70.8194 17.625C68.7881 19.1823 66.684 19.9583 64.5069 19.9583H59.9027V24.125C59.9027 24.6979 59.8819 25.1198 59.8402 25.3958C59.809 25.6771 59.6996 26 59.5069 26.375C59.1579 27.0313 58.1996 27.3542 56.6319 27.3542C54.9079 27.3542 53.9027 26.9063 53.611 26C53.4704 25.5833 53.4027 24.9479 53.4027 24.0833V3.6875C53.4027 3.11979 53.4131 2.69792 53.4444 2.41667C53.486 2.125 53.6006 1.80208 53.7985 1.4375C54.1423 0.770833 55.1006 0.4375 56.6735 0.4375H64.5277C66.6944 0.4375 68.7881 1.22396 70.8194 2.79167C71.8298 3.55729 72.6527 4.59375 73.2777 5.89583ZM64.5277 13.4583C65.2621 13.4583 65.986 13.1875 66.6944 12.6458C67.4131 12.1042 67.7777 11.3021 67.7777 10.2292C67.7777 9.14583 67.4131 8.33333 66.6944 7.79167C65.986 7.23958 65.2569 6.95833 64.5069 6.95833H59.9027V13.4583H64.5277Z" fill="#4570E0"/>
<path d="M83.7031 20.8958H95.0365C95.5885 20.8958 96.0052 20.9167 96.2865 20.9583C96.5781 20.9896 96.901 21.099 97.2656 21.2917C97.9323 21.6406 98.2656 22.599 98.2656 24.1667C98.2656 25.875 97.8125 26.875 96.9115 27.1667C96.4948 27.3229 95.8542 27.3958 94.9948 27.3958H80.4323C78.7083 27.3958 77.7031 26.9323 77.4115 26C77.2708 25.6146 77.2031 24.9896 77.2031 24.125V3.6875C77.2031 2.4375 77.4323 1.58333 77.8906 1.125C78.3594 0.666667 79.2448 0.4375 80.5365 0.4375H95.0365C95.5885 0.4375 96.0052 0.458333 96.2865 0.5C96.5781 0.541667 96.901 0.661459 97.2656 0.854167C97.9323 1.1875 98.2656 2.14063 98.2656 3.70833C98.2656 5.43229 97.8125 6.4375 96.9115 6.72917C96.4948 6.88542 95.8542 6.95833 94.9948 6.95833H83.7031V10.6667H90.974C91.5417 10.6667 91.9635 10.6875 92.2448 10.7292C92.5365 10.7604 92.8594 10.8698 93.224 11.0625C93.8906 11.4115 94.224 12.3698 94.224 13.9375C94.224 15.6615 93.7552 16.6667 92.8281 16.9583C92.4115 17.099 91.7708 17.1667 90.9115 17.1667H83.7031V20.8958Z" fill="#D9D9D9"/>
<path d="M121.836 22.8333C122.196 23.724 122.378 24.3646 122.378 24.75C122.378 25.6823 121.618 26.4688 120.107 27.1042C119.316 27.4479 118.675 27.625 118.191 27.625C117.717 27.625 117.326 27.5052 117.024 27.2708C116.717 27.0365 116.493 26.7917 116.357 26.5417C116.107 26.0833 115.149 23.8698 113.482 19.8958L112.336 19.9583H107.711V24.125C107.711 24.6979 107.691 25.1198 107.649 25.3958C107.618 25.6771 107.508 26 107.316 26.375C106.967 27.0313 106.008 27.3542 104.441 27.3542C102.717 27.3542 101.711 26.9063 101.42 26C101.279 25.5833 101.211 24.9479 101.211 24.0833V3.6875C101.211 3.11979 101.222 2.69792 101.253 2.41667C101.295 2.125 101.409 1.80208 101.607 1.4375C101.951 0.770833 102.909 0.4375 104.482 0.4375H112.42C114.571 0.4375 116.67 1.22396 118.711 2.79167C119.68 3.55729 120.487 4.59375 121.128 5.89583C121.764 7.1875 122.086 8.63542 122.086 10.2292C122.086 12.9948 121.17 15.2708 119.336 17.0625C119.878 18.3698 120.711 20.2917 121.836 22.8333ZM107.711 13.4583H112.42C113.128 13.4583 113.836 13.1875 114.545 12.6458C115.253 12.1042 115.607 11.3021 115.607 10.2292C115.607 9.14583 115.253 8.33333 114.545 7.79167C113.836 7.23958 113.097 6.95833 112.336 6.95833H107.711V13.4583Z" fill="#D9D9D9"/>
<path d="M144.837 5.89583C145.473 7.1875 145.796 8.63542 145.796 10.2292C145.796 11.8125 145.473 13.25 144.837 14.5417C144.212 15.8333 143.389 16.8646 142.379 17.625C140.348 19.1823 138.244 19.9583 136.066 19.9583H131.462V24.125C131.462 24.6979 131.441 25.1198 131.4 25.3958C131.369 25.6771 131.259 26 131.066 26.375C130.717 27.0313 129.759 27.3542 128.191 27.3542C126.467 27.3542 125.462 26.9063 125.171 26C125.03 25.5833 124.962 24.9479 124.962 24.0833V3.6875C124.962 3.11979 124.973 2.69792 125.004 2.41667C125.046 2.125 125.16 1.80208 125.358 1.4375C125.702 0.770833 126.66 0.4375 128.233 0.4375H136.087C138.254 0.4375 140.348 1.22396 142.379 2.79167C143.389 3.55729 144.212 4.59375 144.837 5.89583ZM136.087 13.4583C136.822 13.4583 137.546 13.1875 138.254 12.6458C138.973 12.1042 139.337 11.3021 139.337 10.2292C139.337 9.14583 138.973 8.33333 138.254 7.79167C137.546 7.23958 136.816 6.95833 136.066 6.95833H131.462V13.4583H136.087Z" fill="#D9D9D9"/>
<path d="M166.354 1.43754C166.604 1.05212 166.958 0.78129 167.417 0.625041C167.885 0.473999 168.469 0.395874 169.167 0.395874C169.859 0.395874 170.417 0.458374 170.833 0.583374C171.25 0.708374 171.568 0.864623 171.792 1.04171C172.01 1.20837 172.172 1.46879 172.271 1.81254C172.422 2.22921 172.5 2.86462 172.5 3.70837V14.8125C172.5 18.0521 171.49 20.9948 169.479 23.6459C168.49 24.8959 167.229 25.9115 165.688 26.6875C164.146 27.448 162.438 27.8334 160.563 27.8334C158.688 27.8334 156.979 27.4427 155.438 26.6667C153.906 25.875 152.672 24.8438 151.729 23.5625C149.74 20.9688 148.75 18.0313 148.75 14.75V3.68754C148.75 3.09379 148.76 2.65629 148.792 2.37504C148.833 2.099 148.948 1.78129 149.146 1.41671C149.339 1.04171 149.667 0.78129 150.125 0.625041C150.594 0.473999 151.219 0.395874 152 0.395874C152.792 0.395874 153.417 0.473999 153.875 0.625041C154.344 0.78129 154.672 1.0365 154.854 1.39587C155.146 1.96879 155.292 2.73962 155.292 3.70837V14.75C155.292 16.25 155.656 17.6771 156.396 19.0209C156.755 19.7032 157.302 20.25 158.042 20.6667C158.776 21.0834 159.646 21.2917 160.646 21.2917C162.438 21.2917 163.771 20.6355 164.646 19.3125C165.531 17.9792 165.979 16.448 165.979 14.7084V3.45837C165.979 2.50004 166.104 1.82817 166.354 1.43754Z" fill="#D9D9D9"/>
<path d="M176.389 23.6042C175.749 22.8281 175.431 22.125 175.431 21.5C175.431 20.875 175.957 20.0521 177.014 19.0208C177.624 18.4271 178.27 18.125 178.952 18.125C179.645 18.125 180.603 18.7396 181.827 19.9583C182.171 20.375 182.665 20.7812 183.306 21.1667C183.941 21.5417 184.535 21.7292 185.077 21.7292C187.353 21.7292 188.494 20.8021 188.494 18.9375C188.494 18.3698 188.181 17.8958 187.556 17.5208C186.931 17.1458 186.15 16.875 185.223 16.7083C184.29 16.5312 183.285 16.25 182.202 15.875C181.119 15.4896 180.108 15.0365 179.181 14.5208C178.249 14.0104 177.473 13.1979 176.848 12.0833C176.223 10.974 175.91 9.63542 175.91 8.0625C175.91 5.89583 176.707 4.01563 178.306 2.41667C179.915 0.807292 182.108 0 184.889 0C186.358 0 187.702 0.197916 188.91 0.583333C190.119 0.958333 190.957 1.34375 191.431 1.72917L192.348 2.4375C193.108 3.14583 193.494 3.74479 193.494 4.22917C193.494 4.71875 193.191 5.39063 192.598 6.25C191.764 7.47396 190.91 8.08333 190.035 8.08333C189.52 8.08333 188.879 7.84375 188.119 7.35417C188.046 7.3125 187.91 7.19792 187.702 7C187.494 6.79167 187.296 6.625 187.119 6.5C186.603 6.19792 185.952 6.04167 185.16 6.04167C184.369 6.04167 183.707 6.22917 183.181 6.60417C182.65 6.97917 182.389 7.51042 182.389 8.1875C182.389 8.85417 182.702 9.39583 183.327 9.8125C183.952 10.2292 184.728 10.5156 185.66 10.6667C186.587 10.8229 187.603 11.0521 188.702 11.3542C189.811 11.6615 190.832 12.0365 191.764 12.4792C192.691 12.9115 193.473 13.6771 194.098 14.7708C194.723 15.8542 195.035 17.1979 195.035 18.7917C195.035 20.3906 194.712 21.7917 194.077 23C193.436 24.2083 192.603 25.1458 191.577 25.8125C189.587 27.1198 187.473 27.7708 185.223 27.7708C184.066 27.7708 182.973 27.6302 181.931 27.3542C180.9 27.0625 180.077 26.7083 179.452 26.2917C178.145 25.5156 177.233 24.7604 176.723 24.0208L176.389 23.6042Z" fill="#D9D9D9"/>
</svg>
